<?xml version="1.0" standalone="no"?>
<!DOCTYPE svg PUBLIC "-//W3C//DTD SVG 20010904//EN"
 "http://www.w3.org/TR/2001/REC-SVG-20010904/DTD/svg10.dtd">
<svg version="1.0" xmlns="http://www.w3.org/2000/svg"
 width="512.000000pt" height="512.000000pt" viewBox="0 0 512.000000 512.000000"
 preserveAspectRatio="xMidYMid meet">
<metadata>
Created by potrace 1.14, written by Peter Selinger 2001-2017
</metadata>
<g transform="translate(0.000000,512.000000) scale(0.100000,-0.100000)"
fill="#000000" stroke="none">
<path d="M755 4873 c-46 -12 -61 -40 -72 -135 -13 -117 -7 -246 17 -351 38
-171 150 -385 263 -504 l30 -32 -48 -73 c-92 -143 -214 -430 -240 -565 -8 -42
-33 -201 -39 -253 -8 -63 -8 -285 0 -350 18 -146 91 -242 201 -265 28 -5 33
-12 39 -43 3 -20 10 -55 14 -77 5 -22 8 -40 7 -40 -1 -1 -27 -13 -58 -28 -41
-20 -59 -36 -72 -62 -23 -49 -22 -71 12 -175 28 -89 28 -89 9 -107 -11 -10
-31 -36 -44 -59 -18 -31 -36 -45 -80 -64 -110 -45 -173 -126 -181 -234 -5 -60
0 -81 87 -345 86 -264 94 -284 133 -324 23 -23 60 -51 82 -62 51 -24 143 -31
212 -15 46 10 59 9 88 -5 19 -8 63 -18 97 -21 58 -5 81 0 288 66 124 40 240
76 258 82 45 13 72 42 72 77 0 15 -57 201 -126 412 -69 211 -146 447 -171 524
-53 162 -74 191 -132 181 -77 -13 -72 -17 -100 64 -14 41 -32 86 -39 98 -23
40 -107 65 -159 48 -18 -6 -22 -2 -27 21 -13 65 -16 113 -8 113 18 0 81 67
103 110 17 34 22 61 21 110 -4 271 -2 333 12 419 21 122 76 287 94 283 8 -1
46 -3 85 -4 141 -2 215 35 315 155 131 157 265 259 426 326 299 124 655 113
936 -29 145 -74 240 -152 359 -293 57 -69 83 -92 133 -116 70 -34 140 -43 220
-29 39 7 53 6 59 -4 26 -39 76 -226 95 -351 5 -36 5 -243 0 -327 -5 -87 17
-144 80 -207 50 -50 53 -57 48 -91 -11 -82 -15 -93 -32 -88 -59 19 -140 -4
-164 -46 -7 -12 -25 -57 -39 -98 -21 -61 -30 -74 -45 -72 -10 1 -35 5 -55 8
-67 11 -75 -3 -199 -386 -62 -190 -139 -426 -171 -525 -33 -99 -59 -192 -59
-207 0 -29 30 -64 64 -74 18 -5 206 -63 408 -127 l68 -21 -26 -27 c-15 -15
-49 -38 -78 -50 -48 -21 -65 -22 -317 -24 l-265 -1 -2 29 c-3 36 -28 85 -56
109 -50 45 -74 48 -328 48 -281 0 -305 -6 -355 -81 -27 -41 -28 -48 -29 -169
-2 -175 16 -222 101 -261 35 -16 69 -19 284 -19 224 0 248 2 285 20 48 23 84
72 93 124 3 20 11 37 17 37 6 1 128 2 271 3 298 3 333 9 436 79 35 23 82 65
104 93 110 138 97 127 130 114 39 -15 126 -15 173 1 55 18 119 65 146 108 13
20 63 157 111 304 95 292 100 328 63 417 -28 65 -73 108 -154 146 -45 21 -74
41 -81 57 -6 14 -25 40 -41 58 l-29 34 28 85 c33 99 35 127 12 175 -13 28 -31
42 -75 62 -31 15 -55 29 -54 32 2 3 7 29 10 56 11 78 17 95 35 95 9 0 41 12
70 26 82 41 126 117 146 249 7 51 8 291 1 336 -3 19 -8 57 -11 84 -30 257
-138 542 -302 791 -12 20 -10 26 30 75 90 111 140 197 208 354 54 127 77 342
52 498 -14 88 -21 101 -64 116 -35 12 -212 7 -289 -8 -109 -22 -243 -77 -323
-133 -87 -62 -226 -221 -253 -291 -4 -12 -28 -4 -127 43 -167 79 -350 136
-502 156 -27 3 -54 8 -58 11 -4 3 -94 6 -200 8 -364 7 -630 -50 -920 -196 -70
-35 -78 -38 -84 -22 -16 44 -91 144 -157 208 -108 106 -243 178 -395 211 -70
15 -272 27 -306 17z m289 -173 c27 -6 81 -26 120 -44 125 -58 215 -139 288
-258 38 -61 38 -61 17 -76 -19 -13 -24 -11 -62 26 -83 81 -237 122 -310 83
-71 -38 -61 -234 19 -354 l24 -37 -22 -31 -23 -31 -42 49 c-23 26 -61 81 -84
120 -102 179 -140 336 -131 542 l2 34 78 -6 c42 -3 99 -11 126 -17z m3237 -17
c6 -153 -12 -264 -61 -391 -32 -84 -109 -215 -162 -275 l-33 -39 -23 31 -22
31 24 39 c57 90 82 231 55 309 -15 45 -67 66 -138 58 -71 -8 -165 -53 -213
-101 -34 -33 -39 -35 -57 -23 -20 14 -20 16 16 77 114 192 329 314 566 320
l47 1 1 -37z m-1381 -212 c759 -160 1315 -768 1396 -1526 15 -149 2 -367 -25
-405 -24 -34 -81 -52 -120 -39 -51 18 -66 53 -62 144 9 240 -1 363 -44 527
-19 70 -18 68 -70 193 -169 407 -516 728 -932 860 -241 77 -566 93 -793 39
-14 -3 -38 -8 -54 -11 -60 -10 -214 -65 -313 -112 -359 -172 -611 -443 -756
-811 -32 -81 -75 -245 -82 -308 -2 -26 -7 -65 -11 -87 -7 -45 -8 -224 -1 -301
6 -68 -13 -111 -57 -129 -44 -18 -100 -3 -127 35 -19 27 -30 117 -30 249 0 79
10 241 17 252 1 3 6 28 10 55 9 67 48 201 91 309 195 496 619 879 1141 1031
47 13 99 27 116 29 17 3 56 10 86 15 30 5 66 11 80 13 14 2 117 3 230 2 168
-2 224 -6 310 -24z m-1622 -219 c39 -26 43 -44 14 -69 -15 -13 -30 -23 -34
-23 -11 0 -34 49 -43 88 -7 32 -6 34 16 27 13 -5 34 -15 47 -23z m2627 1 c-10
-43 -33 -93 -42 -93 -5 0 -21 12 -36 26 -26 24 -27 27 -12 44 16 18 72 49 89
50 4 0 5 -12 1 -27z m-1122 -133 c349 -56 668 -245 871 -515 29 -38 63 -86 75
-106 l21 -37 -23 -6 c-59 -14 -120 15 -177 86 -195 240 -452 395 -755 453
-118 23 -337 24 -462 2 -298 -53 -554 -204 -749 -438 -70 -86 -103 -108 -161
-110 -65 -3 -65 -2 -26 62 63 101 171 223 273 310 143 120 385 242 545 275 11
2 31 6 45 9 14 3 36 8 50 11 14 2 54 7 90 11 36 3 66 7 68 8 8 7 250 -5 315
-15z m-1619 -2160 c-11 -9 -174 -63 -178 -59 -8 9 -38 111 -34 115 3 2 45 17
94 32 l89 29 19 -55 c10 -29 14 -57 10 -62z m2924 85 c45 -15 82 -30 82 -34 0
-7 -31 -103 -35 -109 -2 -2 -177 49 -184 55 -9 7 32 121 43 118 6 -2 48 -15
94 -30z m-2705 -262 l16 -52 -52 -17 c-65 -20 -76 -31 -84 -76 -4 -30 -1 -41
20 -62 30 -29 62 -32 122 -11 30 11 41 11 47 2 12 -18 28 -79 23 -87 -3 -4
-25 -13 -50 -20 -76 -21 -105 -94 -56 -143 24 -24 54 -27 105 -10 21 7 44 13
51 13 10 0 35 -68 35 -94 0 -3 -24 -12 -53 -21 -54 -16 -73 -34 -82 -83 -5
-28 31 -71 66 -77 15 -3 46 2 69 10 23 8 46 15 51 15 7 0 42 -100 36 -106 -1
-1 -40 -14 -87 -27 -47 -14 -136 -42 -199 -61 -62 -20 -122 -36 -133 -36 -35
0 -88 32 -104 62 -31 59 -234 696 -230 719 3 13 5 27 5 31 1 3 12 20 26 37 22
25 54 39 203 86 97 31 188 60 202 64 32 11 35 7 53 -56z m2409 57 c13 -5 103
-34 200 -65 147 -46 181 -60 201 -85 45 -53 44 -71 -27 -286 -182 -558 -168
-523 -221 -548 -21 -10 -50 -16 -68 -13 -38 5 -389 116 -400 126 -8 8 21 101
33 101 4 0 27 -7 50 -15 57 -20 74 -19 105 8 56 48 25 123 -61 147 -48 14 -49
15 -32 71 12 43 16 44 79 26 54 -15 82 -12 105 14 22 25 22 83 0 108 -9 10
-37 24 -62 31 -24 7 -47 17 -50 22 -3 4 2 28 11 52 l17 43 53 -15 c63 -18 99
-11 121 24 14 20 15 33 8 62 -9 37 -21 45 -127 84 -7 3 1 31 28 106 5 15 8 15
37 2z m-2942 -631 c58 -176 106 -326 108 -334 3 -11 -6 -15 -32 -15 -69 0 -85
28 -175 302 -45 136 -81 260 -81 277 0 30 42 91 63 91 7 0 59 -144 117 -321z
m3561 308 c23 -17 39 -52 39 -82 0 -15 -36 -137 -81 -273 -90 -274 -106 -302
-174 -302 -19 0 -35 3 -35 7 0 24 217 663 225 663 5 0 17 -6 26 -13z m-1430
-949 c1 -42 1 -86 0 -141 l-1 -27 -222 2 -223 3 -1 95 c-1 52 1 98 3 103 2 4
103 7 224 7 l219 0 1 -42z"/>
</g>
</svg>
